<?xml version="1.0" encoding="utf-8"?>
<!-- Generator: Adobe Illustrator 16.0.0, SVG Export Plug-In . SVG Version: 6.00 Build 0)  -->
<!DOCTYPE svg PUBLIC "-//W3C//DTD SVG 1.1//EN" "http://www.w3.org/Graphics/SVG/1.1/DTD/svg11.dtd">
<svg version="1.1" id="图层_1" xmlns="http://www.w3.org/2000/svg" xmlns:xlink="http://www.w3.org/1999/xlink" x="0px" y="0px"
	 width="313.75px" height="82.5px" viewBox="0 0 313.75 82.5" enable-background="new 0 0 313.75 82.5" xml:space="preserve">
<g>
	<path fill="#184DA1" d="M66.94,15.6C56.785,9.376,43.551,2.437,43.551,2.437c-3.971-2.211-9.862-1.489-12.447,0.114
		C24.087,6.907,6.096,18.389,6.096,18.389c-2.074,1.314-4.538,4.154-4.767,8.559c0,0-0.228,29.252-0.228,29.476
		c-0.003,3.042,2.484,8.431,6.455,10.642c0,0,12.868,7.598,23.506,12.953c0.003,0.002,6.434,3.754,11.796,0.38
		c0.405-0.255,25.63-16.158,25.63-16.158c2.689-1.608,4.822-5.44,4.766-8.558l0.219-30.254C73.519,19.094,66.942,15.602,66.94,15.6
		 M65.331,52.51c0.044,2.432-1.619,5.418-3.716,6.672c0,0-19.665,12.398-19.981,12.598c-4.18,2.631-9.193-0.295-9.196-0.297
		c-8.293-4.176-18.325-10.098-18.325-10.098c-3.095-1.725-5.035-5.926-5.032-8.297c0-0.175,0.178-22.98,0.178-22.98
		c0.178-3.432,2.099-5.646,3.715-6.672c0,0,14.026-8.951,19.497-12.347c2.016-1.25,6.608-1.813,9.703-0.089
		c0,0,10.318,5.411,18.234,10.262c0.002,0.002,5.129,2.724,5.094,7.662L65.331,52.51z"/>
	<path fill="#EF1C24" d="M34.311,53.797l-6.493-3.749c-1.718-0.991-2.774-2.823-2.774-4.807v-6.204l-9.852-5.092
		c-0.034,4.283-0.129,16.527-0.129,16.641c-0.002,1.869,1.526,5.18,3.966,6.538c0,0,7.904,4.667,14.439,7.957
		c0,0,0.32,0.185,0.843,0.4V53.797z"/>
	<path fill="#EF1C24" d="M26.965,33.32c0.265-0.229,0.544-0.442,0.853-0.621l6.698-3.867c1.719-0.992,3.834-0.992,5.551,0
		l6.699,3.867c0.553,0.319,1.028,0.732,1.431,1.203l10.45-5.402c-1.18-1.947-3.139-2.99-3.14-2.992
		c-6.237-3.822-14.367-8.086-14.367-8.086c-2.44-1.357-6.06-0.914-7.646,0.07c-4.312,2.676-15.364,9.73-15.364,9.73
		c-0.37,0.234-0.757,0.557-1.127,0.948L26.965,33.32z"/>
	<path fill="#EF1C24" d="M49.542,39.918v5.323c0,1.983-1.059,3.815-2.775,4.807l-6.493,3.749v11.758
		c0.147-0.075,0.296-0.148,0.441-0.24c0.249-0.156,15.745-9.926,15.745-9.926c1.651-0.988,2.963-3.342,2.928-5.258
		c0,0,0-0.001,0.11-15.359L49.542,39.918z"/>
	<path fill="#184DA1" d="M185.746,27.123c-7.438,0-13.502,5.939-13.949,13.43c0,5.618-3.568,8.656-7.676,8.656h-4.273
		c-1.846,0-3.27-1.508-3.27-3.353v-4.358c0-4.275,3.438-7.795,7.627-7.795c2.096,0,4.023,0.922,5.449,2.347
		c0.586-2.179,1.676-4.19,3.184-5.867c-2.346-1.928-5.363-3.018-8.633-3.018c-7.711,0-13.998,6.37-13.998,14.333
		c0,3.678-0.035,4.609-0.035,4.609c0,3.27-1.342,7.125-3.354,9.64h17.303c6.035,0,9.564-3.694,10.873-5.155
		c2.156-2.407,3.146-5.763,3.17-9.24l0.004-0.004c0-4.279,3.393-7.749,7.578-7.749s7.58,3.47,7.58,7.749s-3.395,7.749-7.58,7.749
		c-2.111,0-4.021-0.886-5.396-2.312c-0.691,2.184-1.846,4.156-3.332,5.828c2.395,1.957,5.426,3.134,8.729,3.134
		c7.73,0,13.998-6.407,13.998-14.312C199.744,33.619,193.449,27.123,185.746,27.123"/>
	<path fill="#184DA1" d="M135.337,55.748c1.824,0,6.25-0.102,8.526-2.322c1.826-1.781,3.061-5.419,3.123-7.769
		c0.15-5.585-2.943-6.478-10.918-6.353c-1.372,0.021-4.026-0.544-4.026-3.169c0-2.692,3.278-3.354,4.676-3.354l11.777-0.015
		c0.904-2.154,2.232-4.092,3.92-5.676h-16.542c-2.85,0.092-5.323,0.814-7.057,2.322c-1.705,1.492-2.715,3.783-2.715,7.061
		c0,2.793,0.572,4.445,1.583,5.613c1.01,1.17,2.415,1.885,5.07,2.174c2.431,0.264,5.351,0.135,6.225,0.318
		c1.282,0.277,2.172,1.031,1.75,3.107c-0.256,1.631-2.178,2.584-5.777,2.584h-11.37c-0.558,1.908-1.523,3.938-2.774,5.477H135.337z
		 M125.36,27.092h-7.298l-4.494,22.026c-0.302,1.615-1.271,4.442-3.062,6.63c8.652,0.169,9.936-4.52,10.812-8.338L125.36,27.092z
		 M93.058,25.891h3.574l-0.724,3.646h-3.574L93.058,25.891z M97.161,26.722h2.759l-0.558,2.815h-2.76L97.161,26.722z M94.506,29.952
		h2.488l-0.498,2.522h-2.488L94.506,29.952z M88.458,55.748c7.729,0,9.12-3.591,10.134-6.061c0.359-0.873,0.791-2.62,0.965-3.752
		c0.39-2.524,1.89-2.555,2.756-2.586h6.716c0.89,0,1.779-0.369,2.487-0.984c0.725-0.615,1.268-1.445,1.448-2.354l0.452-2.246H97.04
		c-3.812,0-4.278,4.471-4.689,7.217C91.945,47.688,91.342,52.225,88.458,55.748 M110.944,32.674c2.105,0,3.65-1.932,3.951-3.353
		c0.203-0.956,0.379-1.872,0.452-2.229h-15.035l-0.618,3.122h-2.217l-0.482,2.46H110.944z"/>
	<path fill="#184DA1" d="M270.541,27.121c-7.438,0-13.5,5.939-13.947,13.432c0,5.617-3.57,8.655-7.676,8.655h-4.275
		c-1.844,0-3.27-1.509-3.27-3.353v-4.358c0-4.274,3.438-7.796,7.629-7.796c2.094,0,4.021,0.923,5.447,2.348
		c0.586-2.18,1.676-4.191,3.186-5.867c-2.348-1.928-5.365-3.018-8.633-3.018c-7.713,0-13.998,6.37-13.998,14.333
		c0,3.677-0.037,4.61-0.037,4.61c0,3.268-1.342,7.124-3.354,9.639h17.305c6.035,0,9.562-3.694,10.871-5.154
		c2.158-2.408,3.146-5.764,3.17-9.24l0.004-0.006c0-4.279,3.395-7.748,7.578-7.748c4.188,0,7.58,3.469,7.58,7.748
		c0,4.281-3.393,7.75-7.58,7.75c-2.111,0-4.021-0.886-5.395-2.312c-0.693,2.184-1.846,4.156-3.332,5.827
		c2.393,1.957,5.424,3.135,8.727,3.135c7.732,0,13.998-6.408,13.998-14.312C284.539,33.619,278.244,27.121,270.541,27.121"/>
	<path fill="#184DA1" d="M296.779,27.09c-2.852,0.092-5.324,0.815-7.059,2.322c-1.705,1.492-2.715,3.784-2.715,7.061
		c0,2.793,0.574,4.445,1.584,5.615c1.01,1.168,2.414,1.883,5.07,2.172c2.432,0.266,5.352,0.135,6.225,0.32
		c1.281,0.276,2.172,1.029,1.75,3.106c-0.256,1.631-2.178,2.585-5.775,2.585h-11.371c-0.559,1.906-1.523,3.938-2.775,5.476h14.531
		c1.824,0,6.252-0.102,8.527-2.323c1.824-1.781,3.059-5.418,3.123-7.768c0.148-5.585-2.945-6.477-10.92-6.354
		c-1.373,0.021-4.027-0.543-4.027-3.168c0-2.691,3.279-3.354,4.676-3.354l10.957-0.007c2.143,0,3.715-1.966,4.023-3.413
		c0.205-0.975,0.385-1.906,0.459-2.271H296.779z"/>
	<path fill="#184DA1" d="M225.266,28.378h-13.619l-5.783,28.498v0.084c0,0,13.494,0,14.416-0.084c4.377,0,6.559-1.128,7.543-2.179
		c4.328-4.277,2.953-11.641,1.928-12.154C232.562,40.196,236.551,28.378,225.266,28.378 M223.969,33.658
		c1.256,0.252,2.178,1.006,1.76,3.102c-0.252,1.592-2.096,3.102-3.438,3.27c-0.754,0.083-5.867,0.167-5.867,0.167l1.342-6.622
		C220.027,33.49,223.381,33.49,223.969,33.658 M224.656,48.139c-0.084,2.527-2.402,3.361-5.371,3.361
		c-1.195,0-5.375,0.012-5.375,0.012l1.508-5.867h6.51C223.209,45.645,224.723,46.122,224.656,48.139"/>
</g>
</svg>
