<?xml version="1.0" encoding="utf-8"?>
<!-- Generator: Adobe Illustrator 24.0.0, SVG Export Plug-In . SVG Version: 6.00 Build 0)  -->
<svg version="1.1" id="图层_1" xmlns="http://www.w3.org/2000/svg" xmlns:xlink="http://www.w3.org/1999/xlink" x="0px" y="0px"
	 viewBox="0 0 96 96" style="enable-background:new 0 0 96 96;" xml:space="preserve">
<style type="text/css">
	.st0{fill:#F7F7F7;}
</style>
<path class="st0" d="M34.5,42.5L48,29l13.5,13.5l7.8-7.8L48,13.3L26.7,34.6L34.5,42.5z M21.2,40.2L29,48l-7.8,7.8L13.3,48L21.2,40.2
	z M34.5,53.5L48,67l13.5-13.5l7.8,7.8l0,0L48,82.7L26.7,61.4l0,0L34.5,53.5z M82.7,48l-7.8,7.8L67,48l7.8-7.8L82.7,48z"/>
<path class="st0" d="M55.9,48L55.9,48L48,40l-8,8l0,0L48,56L55.9,48L55.9,48z"/>
</svg>
