<svg width="317" height="51" viewBox="0 0 317 51" fill="none" xmlns="http://www.w3.org/2000/svg" class="css-57o355"><path d="M315.8 15.052C316.317 15.052 316.678 15.2595 316.885 15.6229C316.988 15.8304 317.142 16.2456 316.73 16.8165L310.74 25.9513V32.1795C310.74 33.0099 310.224 33.5288 309.397 33.5288H308.571C307.745 33.5288 307.228 33.0099 307.228 32.1795V25.9513L301.187 16.8165C300.826 16.1938 300.928 15.7786 301.032 15.5709C301.187 15.2077 301.6 15 302.117 15H303.201C303.872 15 304.336 15.2595 304.647 15.8304L308.933 22.7334L313.27 15.8304C313.58 15.3115 314.044 15.052 314.716 15.052H315.8Z" style="fill:#ffffff"></path><path d="M170.548 15.0521H161.15C160.324 15.0521 159.808 15.5711 159.808 16.4015V32.2314C159.808 33.0618 160.324 33.5809 161.15 33.5809H161.976C162.803 33.5809 163.319 33.0618 163.319 32.2314V26.0032H169.464C170.29 26.0032 170.806 25.4323 170.806 24.6538V24.2905C170.806 23.46 170.29 22.941 169.464 22.941H163.319V18.0623H170.548C171.374 18.0623 171.891 17.5433 171.891 16.7129V16.3496C171.891 15.5711 171.374 15.0521 170.548 15.0521Z" style="fill:#ffffff"></path><path fill-rule="evenodd" clip-rule="evenodd" d="M134.145 15.0525H129.343C128.516 15.0525 128 15.5715 128 16.4019V32.2319C128 33.0623 128.516 33.5813 129.343 33.5813H134.196C139.773 33.5813 143.646 29.7926 143.646 24.3428C143.594 18.8932 139.721 15.0525 134.145 15.0525ZM140.031 24.2909C140.031 27.924 137.604 30.4672 134.093 30.4672H131.511V18.0627H134.093C137.604 18.1147 140.031 20.6579 140.031 24.2909Z" style="fill:#ffffff"></path><path d="M193.114 15.0521H193.941C194.767 15.0521 195.283 15.5711 195.283 16.4015V32.2314C195.283 33.0618 194.767 33.5809 193.941 33.5809H193.114C192.288 33.5809 191.772 33.0618 191.772 32.2314V16.4015C191.772 15.5711 192.288 15.0521 193.114 15.0521Z" style="fill:#ffffff"></path><path d="M228.486 15.0521H227.66C226.834 15.0521 226.317 15.5711 226.317 16.4015V26.9374L218.107 15.7786C217.746 15.2596 217.281 15.0521 216.661 15.0521H216.3C215.474 15.0521 214.957 15.5711 214.957 16.4015V32.2314C214.957 33.0618 215.474 33.5809 216.3 33.5809H217.126C217.952 33.5809 218.469 33.0618 218.469 32.2314V21.6435L226.679 32.8543C227.04 33.3732 227.505 33.5809 228.125 33.5809H228.486C229.312 33.5809 229.829 33.0618 229.829 32.2314V16.4015C229.829 15.5711 229.312 15.0521 228.486 15.0521Z" style="fill:#ffffff"></path><path d="M250.843 15.0521H251.669C252.444 15.0521 253.012 15.5711 253.012 16.4015V32.2314C253.012 33.0618 252.496 33.5809 251.669 33.5809H250.843C250.018 33.5809 249.5 33.0618 249.5 32.2314V16.4015C249.5 15.5711 250.018 15.0521 250.843 15.0521Z" style="fill:#ffffff"></path><path d="M285.08 15.0521H272.686C271.913 15.0521 271.345 15.5711 271.345 16.4015V16.7648C271.345 17.5433 271.861 18.1142 272.686 18.1142H277.128V32.2314C277.128 33.0618 277.644 33.5809 278.47 33.5809H279.297C280.123 33.5809 280.639 33.0618 280.639 32.2314V18.1142H285.08C285.906 18.1142 286.422 17.5952 286.422 16.7648V16.4015C286.422 15.5711 285.906 15.0521 285.08 15.0521Z" style="fill:#ffffff"></path><path d="M78.3872 0C72.6166 0 66.322 3.07561 59.6776 9.13894C56.5303 11.9949 53.7764 15.0705 51.7656 17.531C51.7656 17.531 55.0003 21.1777 58.5411 25.0882C60.4644 22.7155 63.2184 19.5081 66.4094 16.6083C72.3106 11.204 76.1572 10.1056 78.3872 10.1056C86.6922 10.1056 93.4242 16.9158 93.4242 25.3518C93.4242 33.6999 86.6922 40.5101 78.3872 40.598C77.9932 40.598 77.5122 40.5541 76.9442 40.4223C79.3482 41.5207 81.9712 42.3116 84.4192 42.3116C99.6312 42.3116 102.603 32.0302 102.778 31.2833C103.215 29.394 103.478 27.4168 103.478 25.3957C103.434 11.3797 92.2002 0 78.3872 0Z" fill="url(#paint0_linear)"></path><path d="M25.2748 50.6597C31.0449 50.6597 37.3395 47.5841 43.9839 41.5208C47.1312 38.6648 49.8851 35.5892 51.8959 33.1287C51.8959 33.1287 48.6611 29.482 45.1204 25.5715C43.197 27.9442 40.4431 31.1516 37.2521 34.0514C31.3509 39.4118 27.4604 40.5541 25.2748 40.5541C16.9693 40.5541 10.2375 33.7439 10.2375 25.3079C10.2375 16.9598 16.9693 10.1496 25.2748 10.0617C25.6682 10.0617 26.149 10.1056 26.7173 10.2374C24.3131 9.13901 21.6903 8.34814 19.2424 8.34814C4.0303 8.34814 1.05779 18.6295 0.882994 19.3764C0.445894 21.2657 0.183594 23.2429 0.183594 25.264C0.183594 39.28 11.4178 50.6597 25.2748 50.6597Z" fill="url(#paint1_linear)"></path><path fill-rule="evenodd" clip-rule="evenodd" d="M36.8395 16.828C35.1784 15.2462 27.0478 8.78745 19.2669 8.56776C5.40078 8.22679 1.32468 18.0982 0.973247 19.3714C3.62924 8.3019 13.5296 0.0438149 25.2993 0C34.8943 0 44.5905 9.21291 51.7544 17.5275C51.7662 17.5135 51.7775 17.4999 51.7884 17.4868C51.7884 17.4868 55.0231 21.1336 58.5639 25.044C58.5639 25.044 62.5854 29.7014 66.8693 33.7875C68.5304 35.3693 76.6169 41.7402 84.3979 41.9599C98.6489 42.3553 102.583 31.9422 102.801 31.1513C100.179 42.2674 90.2559 50.5715 78.4529 50.6155C68.855 50.6155 59.1556 41.3965 51.9613 33.0797C51.9471 33.0967 51.9334 33.113 51.9204 33.1287C51.9204 33.1287 48.6857 29.4819 45.1449 25.5715C45.1449 25.5715 41.1234 20.9141 36.8395 16.828ZM0.951172 19.4642C0.9551 19.4418 0.962399 19.4107 0.973247 19.3714C0.965832 19.4023 0.958474 19.4333 0.951172 19.4642Z" fill="#29ABE2"></path><defs><linearGradient id="paint0_linear" x1="65.227" y1="3.66876" x2="99.9492" y2="39.4412" gradientUnits="userSpaceOnUse"><stop offset="0.21" stop-color="#F15A24"></stop><stop offset="0.6841" stop-color="#FBB03B"></stop></linearGradient><linearGradient id="paint1_linear" x1="38.4063" y1="46.9721" x2="3.6839" y2="11.1997" gradientUnits="userSpaceOnUse"><stop offset="0.21" stop-color="#ED1E79"></stop><stop offset="0.8929" stop-color="#522785"></stop></linearGradient></defs></svg>