<?xml version="1.0" encoding="utf-8"?>
<!-- Generator: Adobe Illustrator 23.0.1, SVG Export Plug-In . SVG Version: 6.00 Build 0)  -->
<svg version="1.1" id="图层_1" xmlns="http://www.w3.org/2000/svg" xmlns:xlink="http://www.w3.org/1999/xlink" x="0px" y="0px"
	 viewBox="0 0 1024 1024" style="enable-background:new 0 0 1024 1024;" xml:space="preserve">
<style type="text/css">
	.st0{fill:#FFFFFF;}
</style>
<g>
	<path class="st0" d="M512.1,1024L68.6,768.1V256L512.1,0l443.3,256v512.1L512.1,1024z M133.8,730.4l378.3,218.4l377.8-218.4V293.7
		L512.1,75.4L133.8,293.7V730.4z"/>
	<path class="st0" d="M704.7,623.2l-168.6,97.4v111.4l265.2-153V376.5l-96.6,50.4V623.2z M511.9,289.5l150.2,86.8l101.6-53
		L511.9,177.9L260.4,323.2L362.2,376L511.9,289.5z M319.3,623.2V426.4l-96.6-50.2v302.9l249,143.8V711.3L319.3,623.2z"/>
</g>
</svg>
