<svg fill="#ffffff" viewBox="0 0 40 50" class="sc-fzoxnE sc-1gleqwe-4 cmcfii" xmlns="http://www.w3.org/2000/svg"><path d="M28.258 17.234v11.949H40V17.234H28.258zm5.871 7.971l-1.962-1.996 1.962-1.997 1.977 1.997-1.977 1.996zM9.527 7.432H8.063v1.49h1.464v-1.49zM6.37 7.432H4.904v1.49H6.37v-1.49zM12.692 7.432h-1.464v1.49h1.464v-1.49zM15.85 7.432h-1.464v1.49h1.464v-1.49zM30.186 8.924h1.463v-1.49h-1.463v1.49zM33.34 8.924h1.464v-1.49H33.34v1.49zM36.502 8.924h1.464v-1.49h-1.464v1.49zM27.024 8.924h1.463v-1.49h-1.463v1.49zM23.862 8.924h1.463v-1.49h-1.463v1.49zM20.7 8.924h1.463v-1.49H20.7v1.49zM19.008 7.432h-1.464v1.49h1.464v-1.49z"></path><path d="M1.916 8.18c0 1.233.981 2.223 2.192 2.223h33.853v4.875h-1.916v-2.925H4.108a3.965 3.965 0 01-2.192-.647v20.121c0 1.233.981 2.223 2.192 2.223h31.937v-2.924h1.916V36H4.108C1.84 36 0 34.128 0 31.827V8.18C0 5.872 1.84 4 4.108 4h33.853v1.95H4.108c-1.219 0-2.192.99-2.192 2.23z"></path></svg>